{
    "accessors": [
        {
            "bufferView": 5,
            "byteOffset": 0,
            "componentType": 5123,
            "count": 6,
            "max": [
                30
            ],
            "min": [
                4
            ],
            "name": "accessor_buffer_Plane_2",
            "type": "SCALAR"
        },
        {
            "bufferView": 1,
            "byteOffset": 0,
            "componentType": 5126,
            "count": 44,
            "max": [
                9.03839059152034e-10,
                0.0,
                1.0
            ],
            "min": [
                -2.0576722548071302e-09,
                -1.0,
                -0.7854609489440918
            ],
            "name": "accessor_buffer_Plane_NORMAL_0",
            "type": "VEC3"
        },
        {
            "bufferView": 9,
            "byteOffset": 0,
            "componentType": 5123,
            "count": 37740,
            "max": [
                23285
            ],
            "min": [
                0
            ],
            "name": "accessor_buffer_Cube.001_0",
            "type": "SCALAR"
        },
        {
            "bufferView": 2,
            "byteOffset": 0,
            "componentType": 5126,
            "count": 44,
            "max": [
                1.165802001953125,
                1.279084026813507
            ],
            "min": [
                -0.1664966344833374,
                -0.2790839672088623
            ],
            "name": "accessor_buffer_Plane_TEXCOORD_0_0",
            "type": "VEC2"
        },
        {
            "bufferView": 7,
            "byteOffset": 0,
            "componentType": 5126,
            "count": 23286,
            "max": [
                1.0,
                1.0,
                1.0
            ],
            "min": [
                -1.0,
                -1.0,
                -1.0
            ],
            "name": "accessor_buffer_Cube.001_NORMAL_0",
            "type": "VEC3"
        },
        {
            "bufferView": 6,
            "byteOffset": 0,
            "componentType": 5126,
            "count": 23286,
            "max": [
                0.1599999964237213,
                0.04999999329447746,
                0.15599995851516724
            ],
            "min": [
                -0.1599999964237213,
                -0.05099999159574509,
                -5.960464122267695e-09
            ],
            "name": "accessor_buffer_Cube.001_POSITION_0",
            "type": "VEC3"
        },
        {
            "bufferView": 3,
            "byteOffset": 0,
            "componentType": 5123,
            "count": 54,
            "max": [
                43
            ],
            "min": [
                0
            ],
            "name": "accessor_buffer_Plane_0",
            "type": "SCALAR"
        },
        {
            "bufferView": 8,
            "byteOffset": 0,
            "componentType": 5126,
            "count": 23286,
            "max": [
                0.7830682992935181,
                0.6892960667610168
            ],
            "min": [
                0.21693170070648193,
                0.2852175831794739
            ],
            "name": "accessor_buffer_Cube.001_TEXCOORD_0_0",
            "type": "VEC2"
        },
        {
            "bufferView": 4,
            "byteOffset": 0,
            "componentType": 5123,
            "count": 6,
            "max": [
                42
            ],
            "min": [
                17
            ],
            "name": "accessor_buffer_Plane_1",
            "type": "SCALAR"
        },
        {
            "bufferView": 0,
            "byteOffset": 0,
            "componentType": 5126,
            "count": 44,
            "max": [
                0.3999999761581421,
                0.04999999701976776,
                0.4999999701976776
            ],
            "min": [
                -0.3999999761581421,
                -0.34999996423721313,
                0.0
            ],
            "name": "accessor_buffer_Plane_POSITION_0",
            "type": "VEC3"
        }
    ],
    "asset": {
        "version": "2.0"
    },
    "bufferViews": [
        {
            "buffer": 0,
            "byteLength": 528,
            "byteOffset": 0,
            "byteStride": 12,
            "name": "bufferView_buffer_Plane_POSITION_0",
            "target": 34962
        },
        {
            "buffer": 0,
            "byteLength": 528,
            "byteOffset": 528,
            "byteStride": 12,
            "name": "bufferView_buffer_Plane_NORMAL_0",
            "target": 34962
        },
        {
            "buffer": 0,
            "byteLength": 352,
            "byteOffset": 1056,
            "byteStride": 8,
            "name": "bufferView_buffer_Plane_TEXCOORD_0_0",
            "target": 34962
        },
        {
            "buffer": 0,
            "byteLength": 112,
            "byteOffset": 1408,
            "name": "bufferView_buffer_Plane_0",
            "target": 34963
        },
        {
            "buffer": 0,
            "byteLength": 16,
            "byteOffset": 1520,
            "name": "bufferView_buffer_Plane_1",
            "target": 34963
        },
        {
            "buffer": 0,
            "byteLength": 16,
            "byteOffset": 1536,
            "name": "bufferView_buffer_Plane_2",
            "target": 34963
        },
        {
            "buffer": 0,
            "byteLength": 279432,
            "byteOffset": 1552,
            "byteStride": 12,
            "name": "bufferView_buffer_Cube.001_POSITION_0",
            "target": 34962
        },
        {
            "buffer": 0,
            "byteLength": 279432,
            "byteOffset": 280984,
            "byteStride": 12,
            "name": "bufferView_buffer_Cube.001_NORMAL_0",
            "target": 34962
        },
        {
            "buffer": 0,
            "byteLength": 186288,
            "byteOffset": 560416,
            "byteStride": 8,
            "name": "bufferView_buffer_Cube.001_TEXCOORD_0_0",
            "target": 34962
        },
        {
            "buffer": 0,
            "byteLength": 75484,
            "byteOffset": 746704,
            "name": "bufferView_buffer_Cube.001_0",
            "target": 34963
        }
    ],
    "buffers": [
        {
            "byteLength": 822188,
            "name": "buffer_sideboard-pbr",
            "uri": "buffer_sideboard-pbr.bin"
        }
    ],
    "materials": [
        {
            "emissiveFactor": [
                0.0,
                0.0,
                0.0
            ],
            "name": "Carpet",
            "pbrMetallicRoughness": {
                "baseColorFactor": [
                    0.64000004529953,
                    0.64000004529953,
                    0.64000004529953,
                    1.0
                ],
                "metallicFactor": 0.0,
                "roughnessFactor": 1.0
            }
        },
        {
            "emissiveFactor": [
                0.0,
                0.0,
                0.0
            ],
            "name": "Skirting",
            "pbrMetallicRoughness": {
                "baseColorFactor": [
                    0.64000004529953,
                    0.64000004529953,
                    0.64000004529953,
                    1.0
                ],
                "metallicFactor": 0.0,
                "roughnessFactor": 1.0
            }
        },
        {
            "emissiveFactor": [
                0.0,
                0.0,
                0.0
            ],
            "name": "Wall",
            "pbrMetallicRoughness": {
                "baseColorFactor": [
                    0.64000004529953,
                    0.64000004529953,
                    0.64000004529953,
                    1.0
                ],
                "metallicFactor": 0.0,
                "roughnessFactor": 1.0
            }
        },
        {
            "emissiveFactor": [
                0.0,
                0.0,
                0.0
            ],
            "name": "Wood",
            "pbrMetallicRoughness": {
                "baseColorFactor": [
                    0.64000004529953,
                    0.64000004529953,
                    0.64000004529953,
                    1.0
                ],
                "metallicFactor": 0.0,
                "roughnessFactor": 1.0
            }
        }
    ],
    "meshes": [
        {
            "name": "Plane",
            "primitives": [
                {
                    "attributes": {
                        "NORMAL": 1,
                        "POSITION": 9,
                        "TEXCOORD_0": 3
                    },
                    "indices": 6,
                    "material": 1,
                    "mode": 4
                },
                {
                    "attributes": {
                        "NORMAL": 1,
                        "POSITION": 9,
                        "TEXCOORD_0": 3
                    },
                    "indices": 8,
                    "material": 0,
                    "mode": 4
                },
                {
                    "attributes": {
                        "NORMAL": 1,
                        "POSITION": 9,
                        "TEXCOORD_0": 3
                    },
                    "indices": 0,
                    "material": 2,
                    "mode": 4
                }
            ]
        },
        {
            "name": "Cube.001",
            "primitives": [
                {
                    "attributes": {
                        "NORMAL": 4,
                        "POSITION": 5,
                        "TEXCOORD_0": 7
                    },
                    "indices": 2,
                    "material": 3,
                    "mode": 4
                }
            ]
        }
    ],
    "nodes": [
        {
            "mesh": 1,
            "name": "Cube",
            "rotation": [
                0.0,
                0.0,
                0.0,
                1.0
            ],
            "scale": [
                1.0,
                1.0,
                1.0
            ],
            "translation": [
                0.0,
                0.0,
                0.0
            ]
        },
        {
            "mesh": 0,
            "name": "Plane",
            "rotation": [
                0.0,
                0.0,
                0.0,
                1.0
            ],
            "scale": [
                1.0,
                1.0,
                1.0
            ],
            "translation": [
                0.0,
                0.0059999991208314896,
                0.0
            ]
        },
        {
            "children": [
                1,
                0
            ],
            "matrix": [
                -1.0,
                0.0,
                0.0,
                0.0,
                0.0,
                0.0,
                1.0,
                0.0,
                0.0,
                1.0,
                0.0,
                0.0,
                0.0,
                0.0,
                0.0,
                1.0
            ],
            "name": "Scene_root"
        }
    ],
    "scene": 0,
    "scenes": [
        {
            "extras": {
                "background_color": [
                    0.05087608844041824,
                    0.05087608844041824,
                    0.05087608844041824
                ],
                "frames_per_second": 24
            },
            "name": "Scene",
            "nodes": [
                2
            ]
        }
    ]
}
